<?xml version="1.0" encoding="UTF-8"?>
<svg width="34px" height="30px" viewBox="0 0 34 30" version="1.1" xmlns="http://www.w3.org/2000/svg" xmlns:xlink="http://www.w3.org/1999/xlink">
    <!-- Generator: Sketch 52.5 (67469) - http://www.bohemiancoding.com/sketch -->
    <title>Fill 1</title>
    <desc>Created with Sketch.</desc>
    <g id="Page-1" stroke="none" stroke-width="1" fill="none" fill-rule="evenodd">
        <g id="Desktop-HD" transform="translate(-613.000000, -868.000000)" fill="#4A4A4A">
            <g id="table" transform="translate(120.000000, 868.000000)">
                <path d="M523.544,8.402 C522.625,8.402 521.877,7.668 521.877,6.765 C521.877,5.861 522.625,5.127 523.544,5.127 C524.463,5.127 525.211,5.861 525.211,6.765 C525.211,7.668 524.463,8.402 523.544,8.402 Z M521.343,20.279 L521.343,20.308 L521.005,24.426 L499.665,24.426 L499.442,22.735 L497.982,12.632 C498.58,13.27 499.306,13.975 500.045,14.666 C502.077,16.567 502.87,16.791 503.335,16.791 C504.175,16.791 505.456,15.628 507.14,13.353 C508.274,11.821 509.298,10.14 509.983,8.714 C510.673,10.145 511.704,11.826 512.847,13.365 C514.543,15.648 515.831,16.804 516.676,16.804 C517.14,16.804 517.933,16.559 519.966,14.652 C520.742,13.924 521.492,13.131 522.11,12.468 L521.343,20.279 Z M496.466,8.402 C495.546,8.402 494.798,7.668 494.798,6.765 C494.798,5.861 495.546,5.127 496.466,5.127 C497.385,5.127 498.133,5.861 498.133,6.765 C498.133,7.668 497.385,8.402 496.466,8.402 Z M508.336,3.404 C508.336,2.501 509.083,1.766 510.002,1.766 C510.922,1.766 511.67,2.501 511.67,3.404 C511.67,4.307 510.922,5.042 510.002,5.042 C509.083,5.042 508.336,4.307 508.336,3.404 Z M523.544,3.361 C521.633,3.361 520.078,4.888 520.078,6.765 C520.078,8.076 520.852,9.251 522.007,9.815 C519.555,12.608 517.36,14.673 516.709,14.967 C515.773,14.38 511.932,9.468 511.039,6.65 C512.46,6.214 513.468,4.911 513.468,3.404 C513.468,1.527 511.914,0 510.002,0 C508.091,0 506.537,1.527 506.537,3.404 C506.537,4.89 507.531,6.189 508.93,6.637 C508.053,9.451 504.233,14.378 503.3,14.973 C502.639,14.678 500.437,12.614 497.985,9.822 C499.151,9.262 499.932,8.086 499.932,6.765 C499.932,4.888 498.377,3.361 496.466,3.361 C494.555,3.361 493,4.888 493,6.765 C493,8.414 494.223,9.849 495.811,10.159 L497.307,20.407 L497.604,22.431 L497.626,22.576 L497.982,25.173 C498.052,25.649 498.49,26.184 498.98,26.184 L521.715,26.184 C522.216,26.184 522.648,25.638 522.698,25.149 L522.946,22.658 L522.998,21.929 L523.133,20.387 L523.133,20.386 L524.205,10.153 C525.779,9.831 527,8.402 527,6.765 C527,4.888 525.455,3.361 523.544,3.361 Z M521.756,28.235 L499.033,28.235 C498.511,28.235 498.086,28.602 498.086,29.114 C498.086,29.627 498.511,29.993 499.033,29.993 L521.756,29.993 C522.278,29.993 522.703,29.627 522.703,29.114 C522.703,28.602 522.278,28.235 521.756,28.235 Z" id="Fill-1"></path>
            </g>
        </g>
    </g>
</svg>