<?xml version="1.0" encoding="UTF-8"?>
<svg width="109px" height="111px" viewBox="0 0 109 111" version="1.1" xmlns="http://www.w3.org/2000/svg" xmlns:xlink="http://www.w3.org/1999/xlink">
    <!-- Generator: Sketch 52.5 (67469) - http://www.bohemiancoding.com/sketch -->
    <title>dice-2</title>
    <desc>Created with Sketch.</desc>
    <g id="Page-1" stroke="none" stroke-width="1" fill="none" fill-rule="evenodd">
        <g id="Desktop-HD" transform="translate(-678.000000, -321.000000)" fill="#9B9B9B" fill-rule="nonzero">
            <g id="popup">
                <g id="Group-2" transform="translate(525.000000, 321.000000)">
                    <g id="dice-2" transform="translate(153.000000, 0.000000)">
                        <path d="M0,8.83426581 L0,102.17396 C0,107.051725 4.05819551,111 9.07698579,111 L99.9187825,111 C104.929109,111 109,107.047612 109,102.17396 L109,8.83426581 C109,3.97706473 104.920646,0 99.9145508,0 L9.07698579,0 C4.05819551,0 0,3.97706473 0,8.83426581 Z M42.8214286,80.0785714 C42.8214286,86.6305557 37.5982432,91.9714286 31.1428571,91.9714286 C24.695882,91.9714286 19.4642857,86.6305557 19.4642857,80.0785714 C19.4642857,73.5180281 24.695882,68.1857143 31.1428571,68.1857143 C37.5982432,68.1857143 42.8214286,73.5180281 42.8214286,80.0785714 Z M89.5357143,30.9214299 C89.5357143,37.4952627 84.3144091,42.8142857 77.8613468,42.8142857 C71.4166924,42.8142857 66.1785714,37.4952627 66.1785714,30.9214299 C66.1785714,24.3561623 71.4166924,19.028574 77.8613468,19.028574 C84.3144091,19.0242914 89.5357143,24.3518797 89.5357143,30.9214299 Z" id="Shape-Copy"></path>
                    </g>
                </g>
            </g>
        </g>
    </g>
</svg>