<?xml version="1.0" encoding="UTF-8"?>
<svg width="59px" height="58px" viewBox="0 0 59 58" version="1.1" xmlns="http://www.w3.org/2000/svg" xmlns:xlink="http://www.w3.org/1999/xlink">
    <!-- Generator: Sketch 52.5 (67469) - http://www.bohemiancoding.com/sketch -->
    <title>Group 10</title>
    <desc>Created with Sketch.</desc>
    <defs>
        <polygon id="path-1" points="0 0.119664959 48.9014475 0.119664959 48.9014475 41 0 41"></polygon>
        <polygon id="path-3" points="0 58 59 58 59 1 0 1"></polygon>
    </defs>
    <g id="Page-1" stroke="none" stroke-width="1" fill="none" fill-rule="evenodd">
        <g id="Desktop-HD" transform="translate(-448.000000, -719.000000)">
            <g id="popup">
                <g id="Group-4" transform="translate(448.000000, 681.000000)">
                    <g id="Group-6" transform="translate(0.000000, 29.000000)">
                        <g id="Group-10" transform="translate(0.000000, 9.000000)">
                            <g id="Group-3" transform="translate(0.000000, 17.000000)">
                                <mask id="mask-2" fill="white">
                                    <use xlink:href="#path-1"></use>
                                </mask>
                                <g id="Clip-2"></g>
                                <path d="M33.1340617,23.1646365 C33.0382427,23.316133 32.904038,23.5532642 32.7465691,23.7736755 C30.7886047,26.5138422 28.8274415,29.2515372 26.8665691,31.9896684 C26.3905276,32.6542465 25.9153585,33.3196968 25.4352457,33.981367 C25.1460439,34.3800266 24.7140588,34.3811897 24.4283466,33.9823848 C22.8110558,31.7246223 21.1960914,29.4649699 19.5806908,27.2057535 C18.7103228,25.9884025 17.8393733,24.7713422 16.9719134,23.5519557 C16.8811834,23.4244486 16.7461062,23.2800762 16.749305,23.1463174 C16.7533763,22.9685053 16.829857,22.7494025 16.9535929,22.6275656 C17.1280736,22.4557145 17.387032,22.4872642 17.5940825,22.6091011 C19.1303852,23.5129911 20.6617442,24.4251684 22.1955751,25.3332748 C23.0345365,25.8299273 23.8766967,26.3212004 24.7136226,26.8211968 C24.8681834,26.9135195 24.9938095,26.9139557 25.1502605,26.8210514 C27.1064801,25.659094 29.0661893,24.5026613 31.0247353,23.344484 C31.4397086,23.0990656 31.8498837,22.8452145 32.269219,22.607211 C32.6705246,22.3793848 33.1391507,22.6281472 33.1340617,23.1646365 Z M24.922127,6.83878546 C25.1319401,7.00816489 25.3429163,7.10514007 25.4425157,7.26972163 C27.1409401,10.0774947 28.8251151,12.8939911 30.5137976,15.7077252 C31.3446166,17.091984 32.179943,18.4736259 33.0098896,19.8584663 C33.2276997,20.2217961 33.1823347,20.4576188 32.819124,20.6778848 C31.884489,21.244906 30.9417116,21.7982606 29.9995157,22.3527784 C28.4204653,23.2819663 26.838216,24.2060656 25.2603288,25.137289 C25.0298688,25.2732287 24.8249994,25.2681401 24.5959935,25.1326365 C22.5954267,23.9488706 20.5922427,22.7697571 18.588768,21.5910798 C18.1135988,21.3113493 17.6359579,21.0359805 17.1572991,20.762211 C16.6867828,20.4929486 16.6113199,20.264977 16.888308,19.8004557 C17.8004059,18.270516 18.7219549,16.7458103 19.6394326,15.2189238 C20.9336433,13.0648245 22.2275632,10.9107252 23.5211923,8.75633511 C23.8205721,8.25764716 24.1055573,7.74965426 24.4247116,7.26405142 C24.5276552,7.10717553 24.7185662,7.00816489 24.922127,6.83878546 Z M39.132127,20.3722748 C39.1298006,12.2595089 32.6082932,5.75519326 24.476038,5.75475709 C16.4122665,5.75432092 9.88377982,12.2916401 9.88465223,20.3654415 C9.88567003,28.449711 16.4779875,35.0399521 24.5417591,35.0174167 C32.5843021,34.9950266 39.1344534,28.4200514 39.132127,20.3722748 Z M48.9014475,22.5438209 L43.9374712,22.5438209 C42.32367,22.5438209 42.32367,22.5438209 42.32367,24.1281365 L42.32367,28.5567181 C41.5531923,28.5567181 40.8584682,28.5602074 40.1635988,28.5557004 C39.5446285,28.5517748 39.2309994,28.8064982 39.238851,29.4719486 C39.2600795,31.2883067 39.2594979,33.1052465 39.2391418,34.92175 C39.2317264,35.5797855 39.5140944,35.8407606 40.1556018,35.8278209 C41.1446166,35.8081933 42.1343585,35.8227323 43.1149401,35.8227323 C43.347581,36.4396223 43.1870588,36.8311578 42.7213407,37.1989947 C39.5897027,39.6729521 36.0441092,40.9763741 32.0483555,40.9893138 C27.0099341,41.0058883 21.971222,41.0003635 16.9326552,40.9920762 C8.34573234,40.977828 1.06610623,34.476711 0.118821365,25.9351897 C-0.42381365,21.0426684 0.927684866,16.5582571 3.43308249,12.4310691 C6.96021009,6.62070035 12.1892516,2.83110816 18.405854,0.305246454 C18.7299519,0.17352305 19.1127917,0.141391844 19.4684415,0.140083333 C22.5206908,0.127579787 25.5732309,0.156076241 28.6248985,0.120310284 C29.6871953,0.107952128 30.6663228,0.271952128 31.6451596,0.710593972 C37.1080053,3.15925355 41.7311626,6.62477128 45.1073644,11.6384025 C47.1838303,14.7216897 48.8589905,19.456172 48.9014475,22.5438209 Z" id="Fill-1" fill="#AF1E2D" mask="url(#mask-2)"></path>
                            </g>
                            <path d="M33.6757404,8.96844528 C32.2514597,10.9243874 31.15556,13.0552916 30.3873212,15.3558827 C30.235661,15.8097 30.068878,16.0050304 29.5538383,15.9999017 C26.5088244,15.9694225 23.4632344,15.9934542 20.4180765,15.9685433 C20.1758234,15.9666384 19.7833505,15.7877198 19.716234,15.5976646 C18.1814848,11.2514523 15.874176,7.4809739 12,4.77331001 C12.6615149,3.71958065 13.5717641,2.99203702 14.5759187,2.38216056 C17.0001773,0.909635698 19.6806594,0.318808725 22.4560552,0.109997109 C25.9723247,-0.154497605 29.4543158,0.00551803317 32.8294391,1.1728116 C34.5753315,1.77653361 36.170284,2.64694835 37.4390157,4.04752479 C37.6308594,4.25926709 37.7934656,4.49870441 38,4.7643714 C36.3025005,5.93972437 34.8704424,7.32769885 33.6757404,8.96844528 Z" id="Fill-4" fill="#AF1E2D"></path>
                            <mask id="mask-4" fill="white">
                                <use xlink:href="#path-3"></use>
                            </mask>
                            <g id="Clip-7"></g>
                            <polygon id="Fill-6" fill="#AF1E2D" mask="url(#mask-4)" points="41 52 55 52 55 47 41 47"></polygon>
                            <polygon id="Fill-8" fill="#AF1E2D" mask="url(#mask-4)" points="45 57 59 57 59 52 45 52"></polygon>
                            <polygon id="Fill-9" fill="#AF1E2D" mask="url(#mask-4)" points="44 46 58 46 58 41 44 41"></polygon>
                        </g>
                    </g>
                </g>
            </g>
        </g>
    </g>
</svg>