<?xml version="1.0" encoding="UTF-8"?>
<svg width="109px" height="111px" viewBox="0 0 109 111" version="1.1" xmlns="http://www.w3.org/2000/svg" xmlns:xlink="http://www.w3.org/1999/xlink">
    <!-- Generator: Sketch 52.5 (67469) - http://www.bohemiancoding.com/sketch -->
    <title>dice-5</title>
    <desc>Created with Sketch.</desc>
    <g id="Page-1" stroke="none" stroke-width="1" fill="none" fill-rule="evenodd">
        <g id="Desktop-HD" transform="translate(-678.000000, -473.000000)" fill="#9B9B9B" fill-rule="nonzero">
            <g id="popup">
                <g id="Group-2" transform="translate(525.000000, 321.000000)">
                    <g id="dice-5" transform="translate(153.000000, 152.000000)">
                        <path d="M0,8.83426581 L0,102.17396 C0,107.051725 4.05819551,111 9.07698579,111 L99.9187825,111 C104.929109,111 109,107.047612 109,102.17396 L109,8.83426581 C109,3.97706473 104.920646,0 99.9145508,0 L9.07698579,0 C4.05819551,0 0,3.97706473 0,8.83426581 Z M35.0357143,88.0071429 C35.0357143,94.5591271 29.8125289,99.9 23.3571429,99.9 C16.9101677,99.9 11.6785714,94.5591271 11.6785714,88.0071429 C11.6785714,81.4465995 16.9101677,76.1142857 23.3571429,76.1142857 C29.8125289,76.1142857 35.0357143,81.4465995 35.0357143,88.0071429 Z M97.3214286,22.9928584 C97.3214286,29.5666913 92.1001234,34.8857143 85.6470611,34.8857143 C79.2024067,34.8857143 73.9642857,29.5666913 73.9642857,22.9928584 C73.9642857,16.4275909 79.2024067,11.1000026 85.6470611,11.1000026 C92.1001234,11.09572 97.3214286,16.4233082 97.3214286,22.9928584 Z M66.1785714,57.0814332 C66.1785714,63.6529003 60.9553861,68.9785714 54.5,68.9785714 C48.0614358,68.9785714 42.8214286,63.6529003 42.8214286,57.0814332 C42.8214286,50.5185282 48.0614358,45.1928571 54.5,45.1928571 C60.9553861,45.1928571 66.1785714,50.5185282 66.1785714,57.0814332 Z M35.0357143,22.9885761 C35.0357143,29.5600432 29.8125289,34.8857143 23.3571429,34.8857143 C16.9185786,34.8857143 11.6785714,29.5600432 11.6785714,22.9885761 C11.6785714,16.4256711 16.9185786,11.1 23.3571429,11.1 C29.8125289,11.1 35.0357143,16.4256711 35.0357143,22.9885761 Z M97.3214286,88.0028618 C97.3214286,94.5743289 92.0982432,99.9 85.6428571,99.9 C79.2042929,99.9 73.9642857,94.5743289 73.9642857,88.0028618 C73.9642857,81.4399568 79.2042929,76.1142857 85.6428571,76.1142857 C92.0982432,76.1142857 97.3214286,81.4399568 97.3214286,88.0028618 Z" id="Shape-Copy-4"></path>
                    </g>
                </g>
            </g>
        </g>
    </g>
</svg>