<?xml version="1.0" encoding="UTF-8"?>
<svg width="109px" height="111px" viewBox="0 0 109 111" version="1.1" xmlns="http://www.w3.org/2000/svg" xmlns:xlink="http://www.w3.org/1999/xlink">
    <!-- Generator: Sketch 52.5 (67469) - http://www.bohemiancoding.com/sketch -->
    <title>dice-6</title>
    <desc>Created with Sketch.</desc>
    <g id="Page-1" stroke="none" stroke-width="1" fill="none" fill-rule="evenodd">
        <g id="Desktop-HD" transform="translate(-829.000000, -473.000000)" fill="#9B9B9B" fill-rule="nonzero">
            <g id="popup">
                <g id="Group-2" transform="translate(525.000000, 321.000000)">
                    <g id="dice-6" transform="translate(304.000000, 152.000000)">
                        <path d="M0,8.83426581 L0,102.17396 C0,107.051725 4.05819551,111 9.07698579,111 L99.9187825,111 C104.929109,111 109,107.047612 109,102.17396 L109,8.83426581 C109,3.97706473 104.920646,0 99.9145508,0 L9.07698579,0 C4.05819551,0 0,3.97706473 0,8.83426581 Z M45.1571429,87.2142857 C45.1571429,93.76627 39.9339575,99.1071429 33.4785714,99.1071429 C27.0315963,99.1071429 21.8,93.76627 21.8,87.2142857 C21.8,80.6537424 27.0315963,75.3214286 33.4785714,75.3214286 C39.9339575,75.3214286 45.1571429,80.6537424 45.1571429,87.2142857 Z M45.1571429,55.5 C45.1571429,62.0519843 39.9339575,67.3928571 33.4785714,67.3928571 C27.0315963,67.3928571 21.8,62.0519843 21.8,55.5 C21.8,48.9394566 27.0315963,43.6071429 33.4785714,43.6071429 C39.9339575,43.6071429 45.1571429,48.9394566 45.1571429,55.5 Z M45.1571429,23.7857143 C45.1571429,30.3376986 39.9339575,35.6785714 33.4785714,35.6785714 C27.0315963,35.6785714 21.8,30.3376986 21.8,23.7857143 C21.8,17.2251709 27.0315963,11.8928571 33.4785714,11.8928571 C39.9339575,11.8928571 45.1571429,17.2251709 45.1571429,23.7857143 Z M87.9785714,23.7857156 C87.9785714,30.3595484 82.7572663,35.6785714 76.3042039,35.6785714 C69.8595495,35.6785714 64.6214286,30.3595484 64.6214286,23.7857156 C64.6214286,17.220448 69.8595495,11.8928597 76.3042039,11.8928597 C82.7572663,11.8885771 87.9785714,17.2161654 87.9785714,23.7857156 Z M87.9785714,55.4957189 C87.9785714,62.0671861 82.7553861,67.3928571 76.3,67.3928571 C69.8614358,67.3928571 64.6214286,62.0671861 64.6214286,55.4957189 C64.6214286,48.9328139 69.8614358,43.6071429 76.3,43.6071429 C82.7553861,43.6071429 87.9785714,48.9328139 87.9785714,55.4957189 Z M87.9785714,87.2100046 C87.9785714,93.7814718 82.7553861,99.1071429 76.3,99.1071429 C69.8614358,99.1071429 64.6214286,93.7814718 64.6214286,87.2100046 C64.6214286,80.6470997 69.8614358,75.3214286 76.3,75.3214286 C82.7553861,75.3214286 87.9785714,80.6470997 87.9785714,87.2100046 Z" id="Shape-Copy-3"></path>
                    </g>
                </g>
            </g>
        </g>
    </g>
</svg>