<?xml version="1.0" encoding="UTF-8"?>
<svg width="109px" height="111px" viewBox="0 0 109 111" version="1.1" xmlns="http://www.w3.org/2000/svg" xmlns:xlink="http://www.w3.org/1999/xlink">
    <!-- Generator: Sketch 52.5 (67469) - http://www.bohemiancoding.com/sketch -->
    <title>dice-4</title>
    <desc>Created with Sketch.</desc>
    <g id="Page-1" stroke="none" stroke-width="1" fill="none" fill-rule="evenodd">
        <g id="Desktop-HD" transform="translate(-525.000000, -473.000000)" fill="#9B9B9B" fill-rule="nonzero">
            <g id="popup">
                <g id="Group-2" transform="translate(525.000000, 321.000000)">
                    <g id="dice-4" transform="translate(0.000000, 152.000000)">
                        <path d="M0,8.83426581 L0,102.17396 C0,107.051725 4.05819551,111 9.07698579,111 L99.9187825,111 C104.929109,111 109,107.047612 109,102.17396 L109,8.83426581 C109,3.97706473 104.920646,0 99.9145508,0 L9.07698579,0 C4.05819551,0 0,3.97706473 0,8.83426581 Z M42.8214286,80.0785714 C42.8214286,86.6305557 37.5982432,91.9714286 31.1428571,91.9714286 C24.695882,91.9714286 19.4642857,86.6305557 19.4642857,80.0785714 C19.4642857,73.5180281 24.695882,68.1857143 31.1428571,68.1857143 C37.5982432,68.1857143 42.8214286,73.5180281 42.8214286,80.0785714 Z M89.5357143,30.9214299 C89.5357143,37.4952627 84.3144091,42.8142857 77.8613468,42.8142857 C71.4166924,42.8142857 66.1785714,37.4952627 66.1785714,30.9214299 C66.1785714,24.3561623 71.4166924,19.028574 77.8613468,19.028574 C84.3144091,19.0242914 89.5357143,24.3518797 89.5357143,30.9214299 Z M42.8214286,30.9171475 C42.8214286,37.4886146 37.5982432,42.8142857 31.1428571,42.8142857 C24.7042929,42.8142857 19.4642857,37.4886146 19.4642857,30.9171475 C19.4642857,24.3542425 24.7042929,19.0285714 31.1428571,19.0285714 C37.5982432,19.0285714 42.8214286,24.3542425 42.8214286,30.9171475 Z M89.5357143,80.0742903 C89.5357143,86.6457575 84.3125289,91.9714286 77.8571429,91.9714286 C71.4185786,91.9714286 66.1785714,86.6457575 66.1785714,80.0742903 C66.1785714,73.5113854 71.4185786,68.1857143 77.8571429,68.1857143 C84.3125289,68.1857143 89.5357143,73.5113854 89.5357143,80.0742903 Z" id="Shape-Copy-5"></path>
                    </g>
                </g>
            </g>
        </g>
    </g>
</svg>